<?xml version="1.0" encoding="iso-8859-1"?>
<!-- Generator: Adobe Illustrator 19.0.0, SVG Export Plug-In . SVG Version: 6.00 Build 0)  -->
<svg version="1.1" id="Capa_1" xmlns="http://www.w3.org/2000/svg" xmlns:xlink="http://www.w3.org/1999/xlink" x="0px" y="0px"
	 viewBox="0 0 512 512" style="enable-background:new 0 0 512 512;" xml:space="preserve">
<polygon style="fill:#00C3FF;" points="487,45 25,45 25,75 52.104,75 82.104,467 429.896,467 459.896,75 487,75 "/>
<polygon style="fill:#00AAF0;" points="256,45 256,467 429.896,467 459.896,75 487,75 487,45 "/>
<path style="fill:#F2F2F4;" d="M256,376c-68.38,0-132.667-26.629-181.02-74.981C26.629,252.667,0,188.38,0,120v-15h54.4l2.296,30
	H30.492C38.243,252.647,136.426,346,256,346s217.757-93.353,225.508-211h-26.204l2.296-30H512v15
	c0,68.38-26.629,132.667-74.98,181.019C388.667,349.371,324.38,376,256,376z"/>
<path style="fill:#DFDFE1;" d="M457.6,105l-2.296,30h26.204C473.757,252.647,375.574,346,256,346v30
	c68.38,0,132.667-26.629,181.02-74.981C485.371,252.667,512,188.38,512,120v-15H457.6z"/>
<g>
</g>
<g>
</g>
<g>
</g>
<g>
</g>
<g>
</g>
<g>
</g>
<g>
</g>
<g>
</g>
<g>
</g>
<g>
</g>
<g>
</g>
<g>
</g>
<g>
</g>
<g>
</g>
<g>
</g>
</svg>
